# Blender v2.76 (sub 0) OBJ File: 'boundary.blend'
# www.blender.org
mtllib boundary.mtl
o Plane
v -1.000000 0.000000 1.000000
v 1.000000 0.000000 1.000000
v -1.000000 0.000000 -1.000000
v 1.000000 0.000000 -1.000000
v 1.100000 0.000000 1.000000
v 1.100000 0.000000 -1.000000
v -1.100000 0.000000 1.000000
v -1.100000 0.000000 -1.000000
v -1.000000 0.000000 1.100000
v 1.000000 0.000000 1.100000
v 1.100000 0.000000 1.100000
v -1.100000 0.000000 1.100000
v -1.000000 0.000000 -1.100000
v 1.000000 0.000000 -1.100000
v 1.100000 0.000000 -1.100000
v -1.100000 0.000000 -1.100000
v -1.000000 0.100000 -1.000000
v -1.000000 0.100000 1.000000
v 1.000000 0.100000 1.000000
v 1.000000 0.100000 -1.000000
v 1.100000 0.100000 1.000000
v 1.100000 0.100000 -1.000000
v -1.100000 0.100000 -1.000000
v -1.100000 0.100000 1.000000
v -1.000000 0.100000 1.100000
v 1.000000 0.100000 1.100000
v 1.100000 0.100000 1.100000
v -1.100000 0.100000 1.100000
v 1.000000 0.100000 -1.100000
v -1.000000 0.100000 -1.100000
v 1.100000 0.100000 -1.100000
v -1.100000 0.100000 -1.100000
vt 1.000000 0.000000
vt 1.000000 1.000000
vt 0.000000 1.000000
vt 0.000000 0.000000
vn 0.000000 -1.000000 0.000000
vn 0.000000 1.000000 0.000000
vn -1.000000 0.000000 0.000000
vn 1.000000 0.000000 0.000000
vn 0.000000 0.000000 -1.000000
vn 0.000000 0.000000 1.000000
usemtl Material.001
s off
f 6/1/1 5/2/1 2/3/1
f 7/1/1 8/2/1 3/3/1
f 9/1/1 12/2/1 7/3/1
f 11/1/1 10/2/1 2/3/1
f 10/1/1 9/2/1 1/3/1
f 16/1/1 13/2/1 3/3/1
f 14/1/1 15/2/1 6/3/1
f 13/1/1 14/2/1 4/3/1
f 19/1/2 21/2/2 22/3/2
f 17/1/2 23/2/2 24/3/2
f 24/1/2 28/2/2 25/3/2
f 19/1/2 26/2/2 27/3/2
f 18/1/2 25/2/2 26/3/2
f 17/1/2 30/2/2 32/3/2
f 22/1/2 31/2/2 29/3/2
f 20/1/2 29/2/2 30/3/2
f 12/1/3 28/2/3 24/3/3
f 8/1/3 23/2/3 32/3/3
f 7/1/3 24/2/3 23/3/3
f 15/1/4 31/2/4 22/3/4
f 3/1/4 17/2/4 18/3/4
f 1/1/5 18/2/5 19/3/5
f 5/1/4 21/2/4 27/3/4
f 2/1/3 19/2/3 20/3/3
f 13/1/5 30/2/5 29/3/5
f 10/1/6 26/2/6 25/3/6
f 4/1/6 20/2/6 17/3/6
f 14/1/5 29/2/5 31/3/5
f 11/1/6 27/2/6 26/3/6
f 6/1/4 22/2/4 21/3/4
f 16/1/5 32/2/5 30/3/5
f 9/1/6 25/2/6 28/3/6
f 4/4/1 6/1/1 2/3/1
f 1/4/1 7/1/1 3/3/1
f 1/4/1 9/1/1 7/3/1
f 5/4/1 11/1/1 2/3/1
f 2/4/1 10/1/1 1/3/1
f 8/4/1 16/1/1 3/3/1
f 4/4/1 14/1/1 6/3/1
f 3/4/1 13/1/1 4/3/1
f 20/4/2 19/1/2 22/3/2
f 18/4/2 17/1/2 24/3/2
f 18/4/2 24/1/2 25/3/2
f 21/4/2 19/1/2 27/3/2
f 19/4/2 18/1/2 26/3/2
f 23/4/2 17/1/2 32/3/2
f 20/4/2 22/1/2 29/3/2
f 17/4/2 20/1/2 30/3/2
f 7/4/3 12/1/3 24/3/3
f 16/4/3 8/1/3 32/3/3
f 8/4/3 7/1/3 23/3/3
f 6/4/4 15/1/4 22/3/4
f 1/4/4 3/1/4 18/3/4
f 2/4/5 1/1/5 19/3/5
f 11/4/4 5/1/4 27/3/4
f 4/4/3 2/1/3 20/3/3
f 14/4/5 13/1/5 29/3/5
f 9/4/6 10/1/6 25/3/6
f 3/4/6 4/1/6 17/3/6
f 15/4/5 14/1/5 31/3/5
f 10/4/6 11/1/6 26/3/6
f 5/4/4 6/1/4 21/3/4
f 13/4/5 16/1/5 30/3/5
f 12/4/6 9/1/6 28/3/6
